<?xml version="1.0" encoding="UTF-8" standalone="no"?>
<!-- Svg Vector Icons : http://www.onlinewebfonts.com/icon -->

<svg
   xmlns:dc="http://purl.org/dc/elements/1.1/"
   xmlns:cc="http://creativecommons.org/ns#"
   xmlns:rdf="http://www.w3.org/1999/02/22-rdf-syntax-ns#"
   xmlns:svg="http://www.w3.org/2000/svg"
   xmlns="http://www.w3.org/2000/svg"
   xmlns:sodipodi="http://sodipodi.sourceforge.net/DTD/sodipodi-0.dtd"
   xmlns:inkscape="http://www.inkscape.org/namespaces/inkscape"
   version="1.1"
   x="0px"
   y="0px"
   viewBox="0 0 1000 1000"
   enable-background="new 0 0 1000 1000"
   xml:space="preserve"
   id="svg8"
   sodipodi:docname="message.svg"
   inkscape:version="0.92.2 (5c3e80d, 2017-08-06)"><defs
     id="defs12" /><sodipodi:namedview
     pagecolor="#ffffff"
     bordercolor="#666666"
     borderopacity="1"
     objecttolerance="10"
     gridtolerance="10"
     guidetolerance="10"
     inkscape:pageopacity="0"
     inkscape:pageshadow="2"
     inkscape:window-width="751"
     inkscape:window-height="480"
     id="namedview10"
     showgrid="false"
     inkscape:zoom="0.236"
     inkscape:cx="428.64954"
     inkscape:cy="500"
     inkscape:window-x="329"
     inkscape:window-y="158"
     inkscape:window-maximized="0"
     inkscape:current-layer="svg8" /><metadata
     id="metadata2"> Svg Vector Icons : http://www.onlinewebfonts.com/icon <rdf:RDF><cc:Work
     rdf:about=""><dc:format>image/svg+xml</dc:format><dc:type
       rdf:resource="http://purl.org/dc/dcmitype/StillImage" /></cc:Work></rdf:RDF></metadata><g
     id="g6"
     transform="matrix(0.7997584,0,0,0.7997584,100.1208,100.12763)"
     style="stroke:#000000;stroke-width:36.76110077;stroke-miterlimit:4;stroke-dasharray:none;stroke-opacity:1"><path
       d="m 318.5,445.6 c -30.1,0 -54.4,24.4 -54.4,54.4 0,30.1 24.4,54.4 54.4,54.4 30,0 54.5,-24.3 54.5,-54.4 0,-30.1 -24.4,-54.4 -54.5,-54.4 z m 181.5,0 c -30.1,0 -54.4,24.4 -54.4,54.4 0,30.1 24.4,54.4 54.4,54.4 30.1,0 54.4,-24.4 54.4,-54.4 0,-30 -24.3,-54.4 -54.4,-54.4 z m 181.5,0 c -30.1,0 -54.4,24.4 -54.4,54.4 0,30.1 24.4,54.4 54.4,54.4 30.1,0 54.4,-24.4 54.4,-54.4 0,-30.1 -24.3,-54.4 -54.4,-54.4 z M 902.7,778.3 C 959.9,695.9 990,600.1 990,500 990,229.8 770.2,10 500,10 229.8,10 10,229.8 10,500 c 0,270.1 219.8,490 490,490 78.7,0 156.7,-19.2 226.5,-55.8 L 907,988.5 c 12.9,3.9 26.7,0.4 36.1,-9.1 9.4,-9.4 12.9,-23.3 9.1,-36.1 z m -169.9,82.1 c -9.4,-2.8 -19.7,-1.7 -28.3,3.2 -62.3,35.3 -133.1,53.9 -204.6,53.9 C 269.9,917.4 82.6,730.1 82.6,500 82.6,269.8 269.9,82.6 500,82.6 c 230.1,0 417.4,187.3 417.4,417.4 0,90.5 -28.9,176.8 -83.7,249.9 -6.9,9.2 -9,21.2 -5.7,32.2 l 35.3,117.5 z"
       id="path4"
       inkscape:connector-curvature="0"
       style="stroke:#000000;stroke-width:36.76110077;stroke-miterlimit:4;stroke-dasharray:none;stroke-opacity:1" /></g></svg>