<?xml version="1.0" encoding="UTF-8" standalone="no"?>
<svg
   xmlns:dc="http://purl.org/dc/elements/1.1/"
   xmlns:cc="http://creativecommons.org/ns#"
   xmlns:rdf="http://www.w3.org/1999/02/22-rdf-syntax-ns#"
   xmlns:svg="http://www.w3.org/2000/svg"
   xmlns="http://www.w3.org/2000/svg"
   xmlns:sodipodi="http://sodipodi.sourceforge.net/DTD/sodipodi-0.dtd"
   xmlns:inkscape="http://www.inkscape.org/namespaces/inkscape"
   width="17.49"
   height="17.49"
   viewBox="0 0 17.49 17.49"
   version="1.1"
   id="svg6"
   sodipodi:docname="search.svg"
   inkscape:version="0.92.2 (5c3e80d, 2017-08-06)">
  <metadata
     id="metadata12">
    <rdf:RDF>
      <cc:Work
         rdf:about="">
        <dc:format>image/svg+xml</dc:format>
        <dc:type
           rdf:resource="http://purl.org/dc/dcmitype/StillImage" />
      </cc:Work>
    </rdf:RDF>
  </metadata>
  <defs
     id="defs10" />
  <sodipodi:namedview
     pagecolor="#ffffff"
     bordercolor="#666666"
     borderopacity="1"
     objecttolerance="10"
     gridtolerance="10"
     guidetolerance="10"
     inkscape:pageopacity="0"
     inkscape:pageshadow="2"
     inkscape:window-width="751"
     inkscape:window-height="480"
     id="namedview8"
     showgrid="false"
     inkscape:zoom="9.8333333"
     inkscape:cx="9.6282771"
     inkscape:cy="8.49"
     inkscape:window-x="0"
     inkscape:window-y="0"
     inkscape:window-maximized="0"
     inkscape:current-layer="svg6" />
  <path
     d="M -3,-3 H 21 V 21 H -3 Z"
     id="path2"
     inkscape:connector-curvature="0"
     style="fill:none" />
  <path
     d="m 12.383652,10.909818 h -0.776219 l -0.275116,-0.26529 c 0.962905,-1.1201152 1.542614,-2.5742989 1.542614,-4.1562151 0,-3.5273783 -2.85924,-6.38661798 -6.3866181,-6.38661798 -3.5273783,0 -6.38661798,2.85923968 -6.38661798,6.38661798 0,3.5273781 2.85923968,6.3866181 6.38661798,6.3866181 1.5819162,0 3.0360999,-0.579709 4.1562151,-1.542614 l 0.26529,0.275116 v 0.776219 l 4.912783,4.902958 1.464009,-1.464009 z m -5.8953391,0 c -2.446566,0 -4.4215047,-1.9749391 -4.4215047,-4.4215051 0,-2.446566 1.9749387,-4.4215047 4.4215047,-4.4215047 2.446566,0 4.4215051,1.9749387 4.4215051,4.4215047 0,2.446566 -1.9749391,4.4215051 -4.4215051,4.4215051 z"
     id="path4"
     style="fill:#cccccc;stroke-width:0.98255664"
     inkscape:connector-curvature="0" />
</svg>
